<svg id="Layer_1" viewBox="0 0 24 24" xmlns="http://www.w3.org/2000/svg" data-name="Layer 1"><path d="m8 0c-3.309 0-6 2.691-6 6s2.691 6 6 6 6-2.691 6-6-2.691-6-6-6zm0 11c-2.757 0-5-2.243-5-5s2.243-5 5-5 5 2.243 5 5-2.243 5-5 5zm3.964 4.269c-.104.255-.396.378-.651.276-.894-.361-1.84-.545-2.812-.545-4.136 0-7.5 3.364-7.5 7.5v1c0 .276-.224.5-.5.5s-.5-.224-.5-.5v-1c0-4.687 3.813-8.5 8.5-8.5 1.102 0 2.174.208 3.187.618.256.104.38.395.276.651zm7.036 8.231c0 .276-.224.5-.5.5h-2c-1.379 0-2.5-1.122-2.5-2.5v-6c0-1.378 1.121-2.5 2.5-2.5h2c.276 0 .5.224.5.5s-.224.5-.5.5h-2c-.827 0-1.5.673-1.5 1.5v6c0 .827.673 1.5 1.5 1.5h2c.276 0 .5.224.5.5zm4.996-4.979c0 .402-.166.818-.481 1.092l-2.684 2.366c-.207.182-.523.164-.706-.044-.183-.207-.163-.523.044-.706l2.528-2.229h-5.197c-.276 0-.5-.224-.5-.5s.224-.5.5-.5h5.062l-2.393-2.11c-.207-.183-.227-.499-.044-.706.183-.208.498-.227.706-.044l2.688 2.37c.296.254.477.619.477 1.011z"/></svg>