<svg id="Layer_1" viewBox="0 0 24 24" xmlns="http://www.w3.org/2000/svg" data-name="Layer 1"><path d="m22 4.184v-1.184c0-1.654-1.346-3-3-3s-3 1.346-3 3v1.184c-1.161.414-2 1.514-2 2.816v3c0 1.654 1.346 3 3 3h4c1.654 0 3-1.346 3-3v-3c0-1.302-.839-2.402-2-2.816zm-5-1.184c0-1.103.897-2 2-2s2 .897 2 2v1h-4zm6 7c0 1.103-.897 2-2 2h-4c-1.103 0-2-.897-2-2v-3c0-1.103.897-2 2-2h4c1.103 0 2 .897 2 2zm-3.5-2v1c0 .276-.224.5-.5.5s-.5-.224-.5-.5v-1c0-.276.224-.5.5-.5s.5.224.5.5zm3.735 6.518c-.266-.074-.541.084-.613.353-.727 2.7-2.434 4.939-4.674 6.38-.371-2.955-2.894-5.25-5.948-5.25s-5.571 2.29-5.946 5.24c-3.035-1.96-5.054-5.366-5.054-9.24 0-6.066 4.935-11.001 11-11.001.478 0 .961.031 1.436.093.268.035.524-.158.56-.432.035-.274-.158-.524-.432-.561-.517-.066-1.043-.101-1.564-.101-6.617.001-12 5.384-12 12.001s5.383 12 12 12c5.415 0 10.18-3.647 11.588-8.87.072-.267-.086-.541-.353-.612zm-16.214 7.278c.11-2.66 2.292-4.796 4.979-4.796s4.871 2.137 4.98 4.798c-1.509.768-3.205 1.202-4.98 1.202-1.793 0-3.482-.44-4.979-1.204zm1.979-11.796c0 1.654 1.346 3 3 3 .292 0 .58-.042.858-.124.262-.077.543.072.621.338.078.265-.073.543-.338.621-.37.109-.754.165-1.142.165-2.206 0-4-1.794-4-4 0-1.978 1.474-3.68 3.429-3.96.273-.034.526.15.566.424.039.273-.151.527-.424.566-1.465.21-2.571 1.486-2.571 2.97z"/></svg>